<svg width="11" height="13" viewBox="0 0 11 13" fill="none" xmlns="http://www.w3.org/2000/svg">
<path d="M3.14286 0C3.57746 0 3.92857 0.363086 3.92857 0.8125V1.625H7.07143V0.8125C7.07143 0.363086 7.42254 0 7.85714 0C8.29174 0 8.64286 0.363086 8.64286 0.8125V1.625H9.82143C10.4721 1.625 11 2.1709 11 2.84375V4.0625H0V2.84375C0 2.1709 0.527902 1.625 1.17857 1.625H2.35714V0.8125C2.35714 0.363086 2.70826 0 3.14286 0ZM0 4.875H11V11.7812C11 12.4541 10.4721 13 9.82143 13H1.17857C0.527902 13 0 12.4541 0 11.7812V4.875ZM1.57143 6.90625V7.71875C1.57143 7.94219 1.74821 8.125 1.96429 8.125H2.75C2.96607 8.125 3.14286 7.94219 3.14286 7.71875V6.90625C3.14286 6.68281 2.96607 6.5 2.75 6.5H1.96429C1.74821 6.5 1.57143 6.68281 1.57143 6.90625ZM4.71429 6.90625V7.71875C4.71429 7.94219 4.89107 8.125 5.10714 8.125H5.89286C6.10893 8.125 6.28571 7.94219 6.28571 7.71875V6.90625C6.28571 6.68281 6.10893 6.5 5.89286 6.5H5.10714C4.89107 6.5 4.71429 6.68281 4.71429 6.90625ZM8.25 6.5C8.03393 6.5 7.85714 6.68281 7.85714 6.90625V7.71875C7.85714 7.94219 8.03393 8.125 8.25 8.125H9.03571C9.25179 8.125 9.42857 7.94219 9.42857 7.71875V6.90625C9.42857 6.68281 9.25179 6.5 9.03571 6.5H8.25ZM1.57143 10.1562V10.9688C1.57143 11.1922 1.74821 11.375 1.96429 11.375H2.75C2.96607 11.375 3.14286 11.1922 3.14286 10.9688V10.1562C3.14286 9.93281 2.96607 9.75 2.75 9.75H1.96429C1.74821 9.75 1.57143 9.93281 1.57143 10.1562ZM5.10714 9.75C4.89107 9.75 4.71429 9.93281 4.71429 10.1562V10.9688C4.71429 11.1922 4.89107 11.375 5.10714 11.375H5.89286C6.10893 11.375 6.28571 11.1922 6.28571 10.9688V10.1562C6.28571 9.93281 6.10893 9.75 5.89286 9.75H5.10714ZM7.85714 10.1562V10.9688C7.85714 11.1922 8.03393 11.375 8.25 11.375H9.03571C9.25179 11.375 9.42857 11.1922 9.42857 10.9688V10.1562C9.42857 9.93281 9.25179 9.75 9.03571 9.75H8.25C8.03393 9.75 7.85714 9.93281 7.85714 10.1562Z" fill="#535353"/>
</svg>
