<svg width="30" height="28" viewBox="0 0 30 28" fill="none" xmlns="http://www.w3.org/2000/svg">
<path d="M29.5313 14.0001C29.5235 12.6404 28.9758 11.3394 28.0089 10.3834C27.0419 9.42745 25.7348 8.89473 24.375 8.90246C24.211 8.90246 24.0469 8.91184 23.8885 8.92684C23.9822 8.79699 24.0708 8.66293 24.1528 8.5223C24.4909 7.94238 24.7103 7.30106 24.7984 6.63559C24.8865 5.97013 24.8414 5.2938 24.6658 4.64591C24.4902 3.99801 24.1876 3.39148 23.7756 2.86155C23.3635 2.33163 22.8503 1.88887 22.2656 1.55902C21.082 0.882119 19.6794 0.698359 18.3614 1.04749C17.0433 1.39661 15.9156 2.25057 15.2222 3.42465C15.1397 3.56527 15.0671 3.70871 15 3.85355C14.933 3.70871 14.8594 3.56527 14.7778 3.42465C14.0845 2.25057 12.9568 1.39661 11.6387 1.04749C10.3206 0.698359 8.91805 0.882119 7.7344 1.55902C7.14976 1.88887 6.63651 2.33163 6.22448 2.86155C5.81244 3.39148 5.50983 3.99801 5.33424 4.64591C5.15865 5.2938 5.11358 5.97013 5.20164 6.63559C5.2897 7.30106 5.50914 7.94238 5.84721 8.5223C5.92924 8.66293 6.0183 8.79699 6.11158 8.92684C5.95127 8.91184 5.78908 8.90246 5.62502 8.90246C4.94977 8.8933 4.27943 9.01839 3.65292 9.27047C3.02642 9.52254 2.45624 9.89657 1.9755 10.3708C1.49475 10.8451 1.11302 11.4102 0.852477 12.0332C0.591932 12.6562 0.457764 13.3248 0.457764 14.0001C0.457764 14.6754 0.591932 15.344 0.852477 15.967C1.11302 16.5901 1.49475 17.1551 1.9755 17.6294C2.45624 18.1037 3.02642 18.4777 3.65292 18.7298C4.27943 18.9818 4.94977 19.1069 5.62502 19.0978C5.78908 19.0978 5.95315 19.0884 6.11158 19.0734C6.01783 19.2032 5.92924 19.3373 5.84721 19.4779C5.50914 20.0579 5.2897 20.6992 5.20164 21.3646C5.11358 22.0301 5.15865 22.7064 5.33424 23.3543C5.50983 24.0022 5.81244 24.6088 6.22448 25.1387C6.63651 25.6686 7.14976 26.1114 7.7344 26.4412C8.91805 27.1181 10.3206 27.3019 11.6387 26.9527C12.9568 26.6036 14.0845 25.7497 14.7778 24.5756C14.8603 24.435 14.933 24.2915 15 24.1467C15.0671 24.2915 15.1406 24.435 15.2222 24.5756C15.9156 25.7497 17.0433 26.6036 18.3614 26.9527C19.6794 27.3019 21.082 27.1181 22.2656 26.4412C22.8503 26.1114 23.3635 25.6686 23.7756 25.1387C24.1876 24.6088 24.4902 24.0022 24.6658 23.3543C24.8414 22.7064 24.8865 22.0301 24.7984 21.3646C24.7103 20.6992 24.4909 20.0579 24.1528 19.4779C24.0708 19.3373 23.9817 19.2032 23.8885 19.0734C24.0488 19.0884 24.211 19.0978 24.375 19.0978C25.7348 19.1055 27.0419 18.5728 28.0089 17.6168C28.9758 16.6608 29.5235 15.3599 29.5313 14.0001ZM15 18.2189C14.1656 18.2189 13.35 17.9714 12.6562 17.5079C11.9624 17.0443 11.4217 16.3854 11.1024 15.6146C10.7831 14.8437 10.6996 13.9954 10.8623 13.1771C11.0251 12.3587 11.4269 11.607 12.0169 11.017C12.6069 10.427 13.3586 10.0252 14.177 9.86243C14.9953 9.69965 15.8436 9.78319 16.6145 10.1025C17.3853 10.4218 18.0442 10.9625 18.5078 11.6563C18.9713 12.3501 19.2188 13.1657 19.2188 14.0001C19.2188 15.119 18.7743 16.1921 17.9831 16.9832C17.192 17.7744 16.1189 18.2189 15 18.2189Z" fill="#32533D"/>
</svg>
