<svg width="19" height="20" viewBox="0 0 19 20" fill="none" xmlns="http://www.w3.org/2000/svg">
<path d="M16.4691 1.60406L10.2885 0.226657C9.90999 0.147104 9.51911 0.147104 9.14063 0.226657L2.95995 1.60406C2.37128 1.73471 1.8448 2.0623 1.46752 2.5327C1.09025 3.00309 0.884756 3.58812 0.88501 4.19112V7.78474C0.873893 10.2908 1.62099 12.7417 3.02818 14.8155C4.43538 16.8892 6.43687 18.4889 8.76979 19.4044C9.06952 19.5275 9.39052 19.5905 9.71455 19.5898C10.0376 19.5891 10.3578 19.5292 10.6593 19.4132C12.9915 18.4941 14.9919 16.8923 16.3988 14.8175C17.8056 12.7427 18.5533 10.2915 18.5441 7.78474V4.19112C18.5443 3.58812 18.3389 3.00309 17.9616 2.5327C17.5843 2.0623 17.0578 1.73471 16.4691 1.60406ZM13.9086 7.89953L9.66157 12.0759C9.49614 12.2403 9.27235 12.3327 9.03909 12.3327C8.80583 12.3327 8.58204 12.2403 8.41661 12.0759L6.40347 10.0981C6.32071 10.016 6.25503 9.91834 6.2102 9.81075C6.16538 9.70315 6.1423 9.58774 6.1423 9.47118C6.1423 9.35462 6.16538 9.23922 6.2102 9.13162C6.25503 9.02402 6.32071 8.92637 6.40347 8.84429C6.5689 8.67984 6.79269 8.58753 7.02596 8.58753C7.25922 8.58753 7.48301 8.67984 7.64844 8.84429L9.0435 10.2129L12.6724 6.68105C12.7554 6.5993 12.8535 6.53469 12.9614 6.49089C13.0693 6.4471 13.1847 6.42498 13.3012 6.4258C13.4176 6.42662 13.5327 6.45036 13.64 6.49567C13.7472 6.54098 13.8445 6.60698 13.9262 6.68988C14.008 6.77279 14.0726 6.87098 14.1164 6.97886C14.1602 7.08673 14.1823 7.20218 14.1815 7.31861C14.1807 7.43503 14.1569 7.55016 14.1116 7.6574C14.0663 7.76465 14.0003 7.86193 13.9174 7.94367L13.9086 7.89953Z" fill="#32533D"/>
</svg>
