<svg width="18" height="16" viewBox="0 0 18 16" fill="none" xmlns="http://www.w3.org/2000/svg">
<path d="M10.8536 0.646448C10.6584 0.451188 10.3418 0.451178 10.1465 0.646448C9.9512 0.841708 9.9512 1.15829 10.1465 1.35355L16.2929 7.5L0.500097 7.5C0.223898 7.5 9.6959e-05 7.7239 9.69469e-05 8C9.69349e-05 8.2761 0.223898 8.5 0.500097 8.5L16.2929 8.5L10.1465 14.6464C9.9512 14.8417 9.9512 15.1583 10.1465 15.3536C10.3418 15.5488 10.6584 15.5488 10.8536 15.3536L17.8535 8.3536C18.0488 8.1583 18.0488 7.8417 17.8535 7.6464L10.8536 0.646448Z" fill="white"/>
</svg>
